# xmcd
#
# Track frame offsets:
#	150
#	16243
#	32027
#	51544
#	67671
#	84752
#	102875
#	118167
#	132620
#	150975
#	166500
#	182427
#	199453
#
# Disc length: 2886 seconds
#
# Revision: 0
# Processed by: cddbd v1.5.2PL0 Copyright (c) Steve Scherf et al.
# Submitted via: EasyCDDAExtractor 16.1.0.1
#
DISCID=9e0b440d
DTITLE=Сергей Грубов - Непутёвый сын
DYEAR=2005
DGENRE=Chanson
TTITLE0=Кружечка
TTITLE1=Не поётся мне и не пляшется
TTITLE2=Подымите мужика
TTITLE3=Годы молодые (дуэт с Жекой)
TTITLE4=Вдовец
TTITLE5=Кап - кап
TTITLE6=В старом доме
TTITLE7=Чужие (дуэт с Анастасией)
TTITLE8=Без паспорта,без регистрации
TTITLE9=Тополя
TTITLE10=Дай мне
TTITLE11=Неудачи
TTITLE12=Непутёвый сын
EXTD=
EXTT0=
EXTT1=
EXTT2=
EXTT3=
EXTT4=
EXTT5=
EXTT6=
EXTT7=
EXTT8=
EXTT9=
EXTT10=
EXTT11=
EXTT12=
PLAYORDER=
